# xmcd
# Track frame offsets:
# 150
# 18409
# 33099
# 41499
# 55449
# 74499
# 89371
# 117184
# 135324
# 143873
# 155574
# 187524
# 201653
# 210698
# 222924
# 235149
#
# Disc length: 3331 seconds
# Revision: 0
# Processed by: cddbd v1.4PL0 Copyright (c) Steve Scherf et al.
# Submitted via: VisiTrax 2.9.3.170 - For more info visit www.synapsa.com
#
DISCID=e40d0110
DTITLE=Dylan, Bob - Bob Dylan meets George Harrison and Johnny Cash
DYEAR=1900
DGENRE=
TTITLE0=Song to Woody
TTITLE1=Mama You Been On My Mind
TTITLE2=Justine
TTITLE3=Yesterday
TTITLE4=Just Like Tom Thumb's Blues
TTITLE5=Da Doo Ron Ron
TTITLE6=One Too Many Mornings
TTITLE7=One Too Many Mornings
TTITLE8=Good Ole Mountain Dew
TTITLE9=I Still Miss Someone
TTITLE10=Careless Love
TTITLE11=Matchbox
TTITLE12=Big River
TTITLE13=That's All Right, Mama
TTITLE14=I Walk The Line
TTITLE15=You Are My Sunshine
EXTD=tracks 1-8 recorded in NYC May 1. 1970\ntracks 9-16 recorded in Nashvi
EXTD=lle February 17-18, 1969\n\nThe 1970 material includes musicians Georg
EXTD=e Harrison (guitar), Charlie Daniels (bass and backing vocals), Billy Mu
EXTD=ndi (drums), and Bob Johnson (piano). The 1969 material includes Carl Pe
EXTD=rkins, Johnny Cash, and Billy Wotten (guitars), Marshall Grant (bass)
EXTD=, and W.S. Holland (drums).
EXTT0=
EXTT1=
EXTT2=
EXTT3=
EXTT4=
EXTT5=
EXTT6=
EXTT7=
EXTT8=
EXTT9=
EXTT10=
EXTT11=
EXTT12=
EXTT13=
EXTT14=
EXTT15=
PLAYORDER=
